<svg width="70" height="70" viewBox="0 0 70 70" fill="none" xmlns="http://www.w3.org/2000/svg">
<path d="M66.5717 31.766L38.7449 33.4576L59.5939 14.935L59.8899 14.6812C60.1731 14.3633 60.3903 13.9922 60.5289 13.5895C60.6675 13.1868 60.7247 12.7607 60.6971 12.3357C60.6696 11.9108 60.5579 11.4956 60.3685 11.1142C60.1791 10.7328 59.9158 10.3928 59.5939 10.114C58.9521 9.54746 58.1129 9.25641 57.2582 9.3039C56.4034 9.35139 55.6016 9.73358 55.0266 10.3678L36.5459 31.2585L38.1952 3.43237C38.2376 3.29459 38.2376 3.14725 38.1952 3.00948C38.1391 2.15708 37.7467 1.36187 37.1043 0.798789C36.4619 0.235707 35.6221 -0.0491249 34.7697 0.00695384C33.9173 0.0630325 33.1221 0.455435 32.559 1.09782C31.9959 1.74021 31.711 2.57997 31.7671 3.43237L33.4164 31.2585L14.9357 10.3678L14.682 10.114C14.0427 9.54203 13.2023 9.24741 12.3458 9.295C11.4892 9.34258 10.6867 9.72846 10.1147 10.3678C9.54267 11.0071 9.24804 11.8474 9.29563 12.7039C9.34321 13.5604 9.72911 14.363 10.3684 14.935L31.2596 33.4576L3.43288 31.766H3.00998C2.58759 31.7929 2.17467 31.9029 1.79491 32.0898C1.41516 32.2766 1.07606 32.5367 0.797076 32.855C0.51809 33.1732 0.304715 33.5435 0.1692 33.9444C0.0336846 34.3454 -0.0213014 34.7691 0.00739745 35.1914C0.0288894 35.6174 0.13498 36.0349 0.319487 36.4196C0.503993 36.8042 0.763223 37.1482 1.08206 37.4316C1.4009 37.715 1.77297 37.9321 2.17657 38.0703C2.58018 38.2084 3.00725 38.2648 3.43288 38.2362L31.2596 36.5447L10.3684 55.0249L10.1147 55.321C9.54809 55.9628 9.25704 56.8019 9.30453 57.6566C9.35202 58.5114 9.73423 59.3131 10.3684 59.8882C10.6864 60.1714 11.0575 60.3886 11.4602 60.5272C11.8629 60.6658 12.289 60.723 12.714 60.6954C13.1389 60.6679 13.5542 60.5562 13.9356 60.3668C14.317 60.1774 14.657 59.9141 14.9357 59.5922L33.4164 38.7437L31.7671 66.5699V66.9505C31.8216 67.807 32.212 68.6073 32.8535 69.1775C33.4949 69.7477 34.3356 70.0416 35.1926 69.9953C35.615 69.9684 36.0279 69.8584 36.4077 69.6715C36.7874 69.4846 37.1265 69.2246 37.4055 68.9063C37.6845 68.588 37.8979 68.2178 38.0334 67.8168C38.1689 67.4159 38.2239 66.9921 38.1952 66.5699L36.5459 38.7437L55.0266 59.5922L55.3226 59.8882C55.9794 60.3471 56.7824 60.5478 57.5779 60.4517C58.3734 60.3557 59.1056 59.9698 59.6343 59.3677C60.1631 58.7657 60.4513 57.9898 60.4439 57.1886C60.4364 56.3874 60.1338 55.617 59.5939 55.0249L38.7449 36.5447L66.5717 38.2362H66.9523C67.8048 38.1712 68.5988 37.7777 69.1668 37.1387C69.7348 36.4996 70.0325 35.6651 69.9972 34.8108C69.9757 34.3848 69.8696 33.9673 69.6851 33.5826C69.5006 33.198 69.2413 32.854 68.9225 32.5706C68.6037 32.2872 68.2316 32.0701 67.828 31.9319C67.4244 31.7938 66.9973 31.7374 66.5717 31.766Z" fill="#E63B1D"/>
</svg>
