<svg width="26" height="16" viewBox="0 0 26 16" fill="none" xmlns="http://www.w3.org/2000/svg">
<path d="M23.415 0.125H2.05864C1.01964 0.125 0.177429 0.929703 0.177429 1.92242V14.0518C0.177429 15.0444 1.01964 15.8492 2.05864 15.8492H23.415C24.454 15.8492 25.2962 15.0445 25.2962 14.0518V1.92242C25.2962 0.929703 24.454 0.125 23.415 0.125Z" fill="#F5F5F5"/>
<path d="M0.280897 1.33456H25.1927C24.9378 0.630641 24.2384 0.125 23.415 0.125H2.05864C1.23522 0.125 0.535863 0.630641 0.280897 1.33456ZM0.177429 4.96316H25.2962V6.17267H0.177429V4.96316ZM0.177429 2.54394H25.2962V3.75345H0.177429V2.54394ZM0.177429 8.17803C0.177442 8.28778 0.223077 8.39303 0.304297 8.47063C0.385516 8.54823 0.49567 8.59183 0.610532 8.59184H25.2962V7.38228H0.177429V8.17803ZM0.177429 12.2208H25.2962V13.4304H0.177429V12.2208ZM25.1928 14.6396H0.280897C0.535863 15.3435 1.23526 15.8491 2.05864 15.8491H23.415C24.2384 15.8491 24.9378 15.3435 25.1928 14.6396ZM0.177429 9.80159H25.2962V11.0111H0.177429V9.80159Z" fill="#FF4B55"/>
<path d="M0.610532 8.59189H11.4376C11.5525 8.59188 11.6626 8.54828 11.7439 8.47067C11.8251 8.39307 11.8707 8.28783 11.8707 8.17808V0.538812C11.8707 0.429062 11.8251 0.323808 11.7439 0.246203C11.6626 0.168598 11.5525 0.125 11.4376 0.125H2.05864C1.01964 0.125047 0.177429 0.92975 0.177429 1.92247V8.17808C0.177429 8.28783 0.22306 8.39308 0.304282 8.47069C0.385505 8.54829 0.495666 8.59189 0.610532 8.59189Z" fill="#41479B"/>
<path d="M1.39359 1.07478L1.48946 1.34947L1.7925 1.35167C1.83175 1.352 1.84799 1.39981 1.81644 1.42208L1.57266 1.59406L1.66411 1.87011C1.67598 1.90583 1.63335 1.93545 1.60141 1.91361L1.35489 1.74528L1.10836 1.91365C1.07642 1.9355 1.03388 1.90587 1.04566 1.87015L1.13711 1.59411L0.893327 1.42212C0.861782 1.39981 0.878021 1.352 0.917269 1.35172L1.22031 1.34951L1.31618 1.07483C1.32854 1.0392 1.38113 1.0392 1.39359 1.07478ZM1.39359 2.51169L1.48946 2.78637L1.7925 2.78858C1.83175 2.7889 1.84799 2.83667 1.81644 2.85898L1.57266 3.03101L1.66411 3.30706C1.67598 3.34278 1.63335 3.3724 1.60141 3.35056L1.35489 3.18223L1.10836 3.35061C1.07642 3.3724 1.03388 3.34283 1.04566 3.30711L1.13711 3.03106L0.893327 2.85903C0.861782 2.83672 0.878021 2.78895 0.917269 2.78862L1.22031 2.78642L1.31618 2.51173C1.32854 2.47615 1.38113 2.47615 1.39359 2.51169ZM1.39359 3.94864L1.48946 4.22333L1.7925 4.22553C1.83175 4.22586 1.84799 4.27362 1.81644 4.29594L1.57266 4.46797L1.66411 4.74401C1.67598 4.77973 1.63335 4.80936 1.60141 4.78751L1.35489 4.61919L1.10836 4.78756C1.07642 4.80936 1.03388 4.77983 1.04566 4.74406L1.13711 4.46801L0.893327 4.29598C0.861782 4.27367 0.878021 4.2259 0.917269 4.22558L1.22031 4.22337L1.31618 3.94869C1.32854 3.91306 1.38113 3.91306 1.39359 3.94864ZM1.39359 5.38554L1.48946 5.66023L1.7925 5.66244C1.83175 5.66276 1.84799 5.71058 1.81644 5.73284L1.57266 5.90487L1.66411 6.18092C1.67598 6.21664 1.63335 6.24626 1.60141 6.22442L1.35489 6.05609L1.10836 6.22447C1.07642 6.24626 1.03388 6.21669 1.04566 6.18097L1.13711 5.90492L0.893327 5.73289C0.861782 5.71067 0.878021 5.66281 0.917269 5.66248L1.22031 5.66028L1.31618 5.38559C1.32854 5.34997 1.38113 5.34997 1.39359 5.38554ZM1.39359 6.82245L1.48946 7.09714L1.7925 7.09934C1.83175 7.09967 1.84799 7.14744 1.81644 7.16975L1.57266 7.34178L1.66411 7.61783C1.67598 7.65354 1.63335 7.68317 1.60141 7.66133L1.35489 7.493L1.10836 7.66137C1.07642 7.68317 1.03388 7.65359 1.04566 7.61787L1.13711 7.34183L0.893327 7.16979C0.861782 7.14748 0.878021 7.09972 0.917269 7.09939L1.22031 7.09719L1.31618 6.8225C1.32854 6.78692 1.38113 6.78692 1.39359 6.82245ZM2.56088 1.77926L2.65675 2.05395L2.95979 2.05615C2.99904 2.05648 3.01528 2.1043 2.98373 2.12656L2.73995 2.29859L2.8314 2.57464C2.84327 2.61036 2.80064 2.63998 2.7687 2.61814L2.52217 2.44976L2.27565 2.61814C2.24371 2.63994 2.20117 2.61036 2.21295 2.57464L2.3044 2.29859L2.06062 2.12656C2.02907 2.10425 2.04531 2.05648 2.08456 2.05615L2.3876 2.05395L2.48347 1.77926C2.49583 1.74373 2.54847 1.74373 2.56088 1.77926ZM2.56088 3.21622L2.65675 3.4909L2.95979 3.49311C2.99904 3.49344 3.01528 3.54125 2.98373 3.56351L2.73995 3.73554L2.8314 4.01159C2.84327 4.04731 2.80064 4.07694 2.7687 4.05509L2.52217 3.88672L2.27565 4.05509C2.24371 4.07689 2.20117 4.04736 2.21295 4.01159L2.3044 3.73554L2.06062 3.56351C2.02907 3.5413 2.04531 3.49344 2.08456 3.49311L2.3876 3.4909L2.48347 3.21622C2.49583 3.18064 2.54847 3.18064 2.56088 3.21622ZM2.56088 4.65312L2.65675 4.92781L2.95979 4.93001C2.99904 4.93034 3.01528 4.97811 2.98373 5.00042L2.73995 5.17245L2.8314 5.4485C2.84327 5.48422 2.80064 5.51384 2.7687 5.492L2.52217 5.32362L2.27565 5.492C2.24371 5.51379 2.20117 5.48422 2.21295 5.4485L2.3044 5.17245L2.06062 5.00042C2.02907 4.97811 2.04531 4.93034 2.08456 4.93001L2.3876 4.92781L2.48347 4.65312C2.49583 4.61754 2.54847 4.61754 2.56088 4.65312ZM2.56088 6.09003L2.65675 6.36472L2.95979 6.36692C2.99904 6.36725 3.01528 6.41501 2.98373 6.43733L2.73995 6.60936L2.8314 6.8854C2.84327 6.92112 2.80064 6.95075 2.7687 6.9289L2.52217 6.76053L2.27565 6.9289C2.24371 6.95075 2.20117 6.92112 2.21295 6.8854L2.3044 6.60936L2.06062 6.43733C2.02907 6.41501 2.04531 6.36725 2.08456 6.36692L2.3876 6.36472L2.48347 6.09003C2.49583 6.0545 2.54847 6.0545 2.56088 6.09003ZM3.72817 1.07478L3.82403 1.34947L4.12708 1.35167C4.16633 1.352 4.18257 1.39981 4.15102 1.42208L3.90724 1.59406L3.99869 1.87011C4.01056 1.90583 3.96793 1.93545 3.93599 1.91361L3.68946 1.74523L3.44293 1.91361C3.411 1.93545 3.36846 1.90583 3.38024 1.87011L3.47168 1.59406L3.2279 1.42208C3.19636 1.39976 3.2126 1.35195 3.25185 1.35167L3.55489 1.34947L3.65075 1.07478C3.66312 1.0392 3.71576 1.0392 3.72817 1.07478ZM3.72817 2.51169L3.82403 2.78637L4.12708 2.78858C4.16633 2.7889 4.18257 2.83667 4.15102 2.85898L3.90724 3.03101L3.99869 3.30706C4.01056 3.34278 3.96793 3.3724 3.93599 3.35056L3.68946 3.18219L3.44293 3.35056C3.411 3.37236 3.36846 3.34278 3.38024 3.30706L3.47168 3.03101L3.2279 2.85898C3.19636 2.83667 3.2126 2.7889 3.25185 2.78858L3.55489 2.78637L3.65075 2.51169C3.66312 2.47615 3.71576 2.47615 3.72817 2.51169ZM3.72817 3.94864L3.82403 4.22333L4.12708 4.22553C4.16633 4.22586 4.18257 4.27362 4.15102 4.29594L3.90724 4.46797L3.99869 4.74401C4.01056 4.77973 3.96793 4.80936 3.93599 4.78751L3.68946 4.61914L3.44293 4.78751C3.411 4.80931 3.36846 4.77978 3.38024 4.74401L3.47168 4.46797L3.2279 4.29594C3.19636 4.27362 3.2126 4.22586 3.25185 4.22553L3.55489 4.22333L3.65075 3.94864C3.66312 3.91306 3.71576 3.91306 3.72817 3.94864ZM3.72817 5.38554L3.82403 5.66023L4.12708 5.66244C4.16633 5.66276 4.18257 5.71058 4.15102 5.73284L3.90724 5.90487L3.99869 6.18092C4.01056 6.21664 3.96793 6.24626 3.93599 6.22442L3.68946 6.05605L3.44293 6.22442C3.411 6.24622 3.36846 6.21664 3.38024 6.18092L3.47168 5.90487L3.2279 5.73284C3.19636 5.71062 3.2126 5.66276 3.25185 5.66244L3.55489 5.66023L3.65075 5.38554C3.66312 5.34997 3.71576 5.34997 3.72817 5.38554ZM3.72817 6.82245L3.82403 7.09714L4.12708 7.09934C4.16633 7.09967 4.18257 7.14744 4.15102 7.16975L3.90724 7.34178L3.99869 7.61783C4.01056 7.65354 3.96793 7.68317 3.93599 7.66133L3.68946 7.49295L3.44293 7.66133C3.411 7.68312 3.36846 7.65354 3.38024 7.61783L3.47168 7.34178L3.2279 7.16975C3.19636 7.14744 3.2126 7.09967 3.25185 7.09934L3.55489 7.09714L3.65075 6.82245C3.66312 6.78692 3.71576 6.78692 3.72817 6.82245ZM4.89551 1.77926L4.99137 2.05395L5.29442 2.05615C5.33366 2.05648 5.3499 2.1043 5.31836 2.12656L5.07458 2.29859L5.16603 2.57464C5.1779 2.61036 5.13526 2.63998 5.10333 2.61814L4.8568 2.44976L4.61027 2.61814C4.57833 2.63994 4.5358 2.61036 4.54757 2.57464L4.63902 2.29859L4.39524 2.12656C4.3637 2.10425 4.37993 2.05648 4.41918 2.05615L4.72223 2.05395L4.81809 1.77926C4.8304 1.74373 4.8831 1.74373 4.89551 1.77926ZM4.89551 3.21622L4.99137 3.4909L5.29442 3.49311C5.33366 3.49344 5.3499 3.54125 5.31836 3.56351L5.07458 3.73554L5.16603 4.01159C5.1779 4.04731 5.13526 4.07694 5.10333 4.05509L4.8568 3.88672L4.61027 4.05509C4.57833 4.07689 4.5358 4.04736 4.54757 4.01159L4.63902 3.73554L4.39524 3.56351C4.3637 3.5413 4.37993 3.49344 4.41918 3.49311L4.72223 3.4909L4.81809 3.21622C4.8304 3.18064 4.8831 3.18064 4.89551 3.21622ZM4.89551 4.65312L4.99137 4.92781L5.29442 4.93001C5.33366 4.93034 5.3499 4.97811 5.31836 5.00042L5.07458 5.17245L5.16603 5.4485C5.1779 5.48422 5.13526 5.51384 5.10333 5.492L4.8568 5.32362L4.61027 5.492C4.57833 5.51379 4.5358 5.48422 4.54757 5.4485L4.63902 5.17245L4.39524 5.00042C4.3637 4.97811 4.37993 4.93034 4.41918 4.93001L4.72223 4.92781L4.81809 4.65312C4.8304 4.61754 4.8831 4.61754 4.89551 4.65312ZM4.89551 6.09003L4.99137 6.36472L5.29442 6.36692C5.33366 6.36725 5.3499 6.41501 5.31836 6.43733L5.07458 6.60936L5.16603 6.8854C5.1779 6.92112 5.13526 6.95075 5.10333 6.9289L4.8568 6.76053L4.61027 6.9289C4.57833 6.95075 4.5358 6.92112 4.54757 6.8854L4.63902 6.60936L4.39524 6.43733C4.3637 6.41501 4.37993 6.36725 4.41918 6.36692L4.72223 6.36472L4.81809 6.09003C4.8304 6.0545 4.8831 6.0545 4.89551 6.09003ZM6.0628 1.07478L6.15866 1.34947L6.4617 1.35167C6.50095 1.352 6.51719 1.39981 6.48564 1.42208L6.24187 1.59406L6.33331 1.87011C6.34519 1.90583 6.30255 1.93545 6.27061 1.91361L6.02404 1.74528L5.77751 1.91365C5.74557 1.9355 5.70304 1.90587 5.71481 1.87015L5.80626 1.59411L5.56248 1.42212C5.53093 1.39981 5.54717 1.352 5.58642 1.35172L5.88947 1.34951L5.98533 1.07483C5.99774 1.0392 6.05038 1.0392 6.0628 1.07478ZM6.0628 2.51169L6.15866 2.78637L6.4617 2.78858C6.50095 2.7889 6.51719 2.83667 6.48564 2.85898L6.24187 3.03101L6.33331 3.30706C6.34519 3.34278 6.30255 3.3724 6.27061 3.35056L6.02404 3.18219L5.77751 3.35056C5.74557 3.37236 5.70304 3.34278 5.71481 3.30706L5.80626 3.03101L5.56248 2.85898C5.53093 2.83667 5.54717 2.7889 5.58642 2.78858L5.88947 2.78637L5.98533 2.51169C5.99774 2.47615 6.05038 2.47615 6.0628 2.51169ZM6.0628 3.94864L6.15866 4.22333L6.4617 4.22553C6.50095 4.22586 6.51719 4.27362 6.48564 4.29594L6.24187 4.46797L6.33331 4.74401C6.34519 4.77973 6.30255 4.80936 6.27061 4.78751L6.02404 4.61909L5.77751 4.78747C5.74557 4.80926 5.70304 4.77969 5.71481 4.74397L5.80626 4.46792L5.56248 4.29589C5.53093 4.27358 5.54717 4.22581 5.58642 4.22548L5.88947 4.22328L5.98533 3.94859C5.99774 3.91306 6.05038 3.91306 6.0628 3.94864ZM6.0628 5.38554L6.15866 5.66023L6.4617 5.66244C6.50095 5.66276 6.51719 5.71058 6.48564 5.73284L6.24187 5.90487L6.33331 6.18092C6.34519 6.21664 6.30255 6.24626 6.27061 6.22442L6.02404 6.05605L5.77751 6.22442C5.74557 6.24622 5.70304 6.21664 5.71481 6.18092L5.80626 5.90487L5.56248 5.73284C5.53093 5.71062 5.54717 5.66276 5.58642 5.66244L5.88947 5.66023L5.98533 5.38554C5.99774 5.34997 6.05038 5.34997 6.0628 5.38554ZM6.0628 6.82245L6.15866 7.09714L6.4617 7.09934C6.50095 7.09967 6.51719 7.14744 6.48564 7.16975L6.24187 7.34178L6.33331 7.61783C6.34519 7.65354 6.30255 7.68317 6.27061 7.66133L6.02404 7.49295L5.77751 7.66133C5.74557 7.68312 5.70304 7.65354 5.71481 7.61783L5.80626 7.34178L5.56248 7.16975C5.53093 7.14744 5.54717 7.09967 5.58642 7.09934L5.88947 7.09714L5.98533 6.82245C5.99774 6.78692 6.05038 6.78692 6.0628 6.82245ZM7.23008 1.77926L7.32595 2.05395L7.62899 2.05615C7.66824 2.05648 7.68448 2.1043 7.65293 2.12656L7.40915 2.29859L7.5006 2.57464C7.51247 2.61036 7.46984 2.63998 7.4379 2.61814L7.19138 2.44976L6.94485 2.61814C6.91291 2.63994 6.87037 2.61036 6.88215 2.57464L6.9736 2.29859L6.72982 2.12656C6.69827 2.10425 6.71451 2.05648 6.75376 2.05615L7.0568 2.05395L7.15267 1.77926C7.16508 1.74373 7.21767 1.74373 7.23008 1.77926ZM7.23008 3.21622L7.32595 3.4909L7.62899 3.49311C7.66824 3.49344 7.68448 3.54125 7.65293 3.56351L7.40915 3.73554L7.5006 4.01159C7.51247 4.04731 7.46984 4.07694 7.4379 4.05509L7.19138 3.88672L6.94485 4.05509C6.91291 4.07689 6.87037 4.04736 6.88215 4.01159L6.9736 3.73554L6.72982 3.56351C6.69827 3.5413 6.71451 3.49344 6.75376 3.49311L7.0568 3.4909L7.15267 3.21622C7.16508 3.18064 7.21767 3.18064 7.23008 3.21622ZM7.23008 4.65312L7.32595 4.92781L7.62899 4.93001C7.66824 4.93034 7.68448 4.97811 7.65293 5.00042L7.40915 5.17245L7.5006 5.4485C7.51247 5.48422 7.46984 5.51384 7.4379 5.492L7.19138 5.32362L6.94485 5.492C6.91291 5.51379 6.87037 5.48422 6.88215 5.4485L6.9736 5.17245L6.72982 5.00042C6.69827 4.97811 6.71451 4.93034 6.75376 4.93001L7.0568 4.92781L7.15267 4.65312C7.16508 4.61754 7.21767 4.61754 7.23008 4.65312ZM7.23008 6.09003L7.32595 6.36472L7.62899 6.36692C7.66824 6.36725 7.68448 6.41501 7.65293 6.43733L7.40915 6.60936L7.5006 6.8854C7.51247 6.92112 7.46984 6.95075 7.4379 6.9289L7.19138 6.76053L6.94485 6.9289C6.91291 6.95075 6.87037 6.92112 6.88215 6.8854L6.9736 6.60936L6.72982 6.43733C6.69827 6.41501 6.71451 6.36725 6.75376 6.36692L7.0568 6.36472L7.15267 6.09003C7.16508 6.0545 7.21767 6.0545 7.23008 6.09003ZM8.39742 1.07478L8.49328 1.34947L8.79633 1.35167C8.83558 1.352 8.85182 1.39981 8.82027 1.42208L8.57649 1.59406L8.66794 1.87011C8.67981 1.90583 8.63718 1.93545 8.60524 1.91361L8.35871 1.74523L8.11219 1.91361C8.08025 1.93545 8.03771 1.90583 8.04949 1.87011L8.14093 1.59406L7.89715 1.42208C7.86561 1.39976 7.88185 1.35195 7.9211 1.35167L8.22414 1.34947L8.32 1.07478C8.33232 1.0392 8.38501 1.0392 8.39742 1.07478ZM8.39742 2.51169L8.49328 2.78637L8.79633 2.78858C8.83558 2.7889 8.85182 2.83667 8.82027 2.85898L8.57649 3.03101L8.66794 3.30706C8.67981 3.34278 8.63718 3.3724 8.60524 3.35056L8.35871 3.18219L8.11219 3.35056C8.08025 3.37236 8.03771 3.34278 8.04949 3.30706L8.14093 3.03101L7.89715 2.85898C7.86561 2.83667 7.88185 2.7889 7.9211 2.78858L8.22414 2.78637L8.32 2.51169C8.33232 2.47615 8.38501 2.47615 8.39742 2.51169ZM8.39742 3.94864L8.49328 4.22333L8.79633 4.22553C8.83558 4.22586 8.85182 4.27362 8.82027 4.29594L8.57649 4.46797L8.66794 4.74401C8.67981 4.77973 8.63718 4.80936 8.60524 4.78751L8.35871 4.61914L8.11219 4.78751C8.08025 4.80931 8.03771 4.77978 8.04949 4.74401L8.14093 4.46797L7.89715 4.29594C7.86561 4.27362 7.88185 4.22586 7.9211 4.22553L8.22414 4.22333L8.32 3.94864C8.33232 3.91306 8.38501 3.91306 8.39742 3.94864ZM8.39742 5.38554L8.49328 5.66023L8.79633 5.66244C8.83558 5.66276 8.85182 5.71058 8.82027 5.73284L8.57649 5.90487L8.66794 6.18092C8.67981 6.21664 8.63718 6.24626 8.60524 6.22442L8.35871 6.05605L8.11219 6.22442C8.08025 6.24622 8.03771 6.21664 8.04949 6.18092L8.14093 5.90487L7.89715 5.73284C7.86561 5.71062 7.88185 5.66276 7.9211 5.66244L8.22414 5.66023L8.32 5.38554C8.33232 5.34997 8.38501 5.34997 8.39742 5.38554ZM8.39742 6.82245L8.49328 7.09714L8.79633 7.09934C8.83558 7.09967 8.85182 7.14744 8.82027 7.16975L8.57649 7.34178L8.66794 7.61783C8.67981 7.65354 8.63718 7.68317 8.60524 7.66133L8.35871 7.49295L8.11219 7.66133C8.08025 7.68312 8.03771 7.65354 8.04949 7.61783L8.14093 7.34178L7.89715 7.16975C7.86561 7.14744 7.88185 7.09967 7.9211 7.09934L8.22414 7.09714L8.32 6.82245C8.33232 6.78692 8.38501 6.78692 8.39742 6.82245ZM9.56471 1.77926L9.66057 2.05395L9.96362 2.05615C10.0029 2.05648 10.0191 2.1043 9.98756 2.12656L9.74378 2.29859L9.83523 2.57464C9.8471 2.61036 9.80447 2.63998 9.77253 2.61814L9.526 2.44976L9.27947 2.61814C9.24754 2.63994 9.205 2.61036 9.21677 2.57464L9.30822 2.29859L9.06444 2.12656C9.0329 2.10425 9.04914 2.05648 9.08838 2.05615L9.39143 2.05395L9.48729 1.77926C9.49966 1.74373 9.5523 1.74373 9.56471 1.77926ZM9.56471 3.21622L9.66057 3.4909L9.96362 3.49311C10.0029 3.49344 10.0191 3.54125 9.98756 3.56351L9.74378 3.73554L9.83523 4.01159C9.8471 4.04731 9.80447 4.07694 9.77253 4.05509L9.526 3.88672L9.27947 4.05509C9.24754 4.07689 9.205 4.04736 9.21677 4.01159L9.30822 3.73554L9.06444 3.56351C9.0329 3.5413 9.04914 3.49344 9.08838 3.49311L9.39143 3.4909L9.48729 3.21622C9.49966 3.18064 9.5523 3.18064 9.56471 3.21622ZM9.56471 4.65312L9.66057 4.92781L9.96362 4.93001C10.0029 4.93034 10.0191 4.97811 9.98756 5.00042L9.74378 5.17245L9.83523 5.4485C9.8471 5.48422 9.80447 5.51384 9.77253 5.492L9.526 5.32362L9.27947 5.492C9.24754 5.51379 9.205 5.48422 9.21677 5.4485L9.30822 5.17245L9.06444 5.00042C9.0329 4.97811 9.04914 4.93034 9.08838 4.93001L9.39143 4.92781L9.48729 4.65312C9.49966 4.61754 9.5523 4.61754 9.56471 4.65312ZM9.56471 6.09003L9.66057 6.36472L9.96362 6.36692C10.0029 6.36725 10.0191 6.41501 9.98756 6.43733L9.74378 6.60936L9.83523 6.8854C9.8471 6.92112 9.80447 6.95075 9.77253 6.9289L9.526 6.76053L9.27947 6.9289C9.24754 6.95075 9.205 6.92112 9.21677 6.8854L9.30822 6.60936L9.06444 6.43733C9.0329 6.41501 9.04914 6.36725 9.08838 6.36692L9.39143 6.36472L9.48729 6.09003C9.49966 6.0545 9.5523 6.0545 9.56471 6.09003ZM10.732 1.07478L10.8279 1.34947L11.131 1.35167C11.1702 1.352 11.1864 1.39981 11.1549 1.42208L10.9111 1.59406L11.0026 1.87011C11.0144 1.90583 10.9718 1.93545 10.9399 1.91361L10.6933 1.74523L10.4468 1.91361C10.4149 1.93545 10.3723 1.90583 10.3841 1.87011L10.4756 1.59406L10.2318 1.42208C10.2002 1.39976 10.2165 1.35195 10.2557 1.35167L10.5588 1.34947L10.6546 1.07478C10.667 1.0392 10.7196 1.0392 10.732 1.07478ZM10.732 2.51169L10.8279 2.78637L11.131 2.78858C11.1702 2.7889 11.1864 2.83667 11.1549 2.85898L10.9111 3.03101L11.0026 3.30706C11.0144 3.34278 10.9718 3.3724 10.9399 3.35056L10.6933 3.18219L10.4468 3.35056C10.4149 3.37236 10.3723 3.34278 10.3841 3.30706L10.4756 3.03101L10.2318 2.85898C10.2002 2.83667 10.2165 2.7889 10.2557 2.78858L10.5588 2.78637L10.6546 2.51169C10.667 2.47615 10.7196 2.47615 10.732 2.51169ZM10.732 3.94864L10.8279 4.22333L11.131 4.22553C11.1702 4.22586 11.1864 4.27362 11.1549 4.29594L10.9111 4.46797L11.0026 4.74401C11.0144 4.77973 10.9718 4.80936 10.9399 4.78751L10.6933 4.61914L10.4468 4.78751C10.4149 4.80931 10.3723 4.77978 10.3841 4.74401L10.4756 4.46797L10.2318 4.29594C10.2002 4.27362 10.2165 4.22586 10.2557 4.22553L10.5588 4.22333L10.6546 3.94864C10.667 3.91306 10.7196 3.91306 10.732 3.94864ZM10.732 5.38554L10.8279 5.66023L11.131 5.66244C11.1702 5.66276 11.1864 5.71058 11.1549 5.73284L10.9111 5.90487L11.0026 6.18092C11.0144 6.21664 10.9718 6.24626 10.9399 6.22442L10.6933 6.05605L10.4468 6.22442C10.4149 6.24622 10.3723 6.21664 10.3841 6.18092L10.4756 5.90487L10.2318 5.73284C10.2002 5.71062 10.2165 5.66276 10.2557 5.66244L10.5588 5.66023L10.6546 5.38554C10.667 5.34997 10.7196 5.34997 10.732 5.38554ZM10.732 6.82245L10.8279 7.09714L11.131 7.09934C11.1702 7.09967 11.1864 7.14744 11.1549 7.16975L10.9111 7.34178L11.0026 7.61783C11.0144 7.65354 10.9718 7.68317 10.9399 7.66133L10.6933 7.49295L10.4468 7.66133C10.4149 7.68312 10.3723 7.65354 10.3841 7.61783L10.4756 7.34178L10.2318 7.16975C10.2002 7.14744 10.2165 7.09967 10.2557 7.09934L10.5588 7.09714L10.6546 6.82245C10.667 6.78692 10.7196 6.78692 10.732 6.82245Z" fill="#F5F5F5"/>
</svg>
